<svg width="84" height="84" viewBox="0 0 84 84" fill="none" xmlns="http://www.w3.org/2000/svg">
<g id="Weather / Evening / Clear / 1">
<g clip-path="url(#clip0)">
<path d="M0 42C0 18.804 18.804 0 42 0C65.196 0 84 18.804 84 42C84 65.196 65.196 84 42 84C18.804 84 0 65.196 0 42Z" fill="url(#paint0_linear)"/>
<circle id="Oval 1" cx="52" cy="20" r="7" fill="white"/>
<path id="Path 51" d="M12.9136 15.1684C-8.0742 19.7403 -9 48.9796 -9 48.9796V67.9266H108.522V21.3054C89.9553 21.3054 86 43.5525 61.8195 43.5525C35 43.5525 31.2636 12.4495 12.9136 15.1684Z" fill="#EDB9BC"/>
<path id="Vector 8" d="M90.5 57.0008V53.5008C90.5 53.5008 84.4258 48.7872 73.5 47.5008C65 46.5 63.85 53.1963 57.5 53.5008C45.5262 54.075 43.5 44.0008 27.5 44.0008C15 44.0008 7.5 55.5008 -1.5 55.5008C-7.5 55.5008 -25 49.0008 -25 49.0008V57.0008H90.5Z" fill="url(#paint1_linear)"/>
<path id="Rectangle 3" d="M2 57H85V95.0476H2V57Z" fill="url(#paint2_linear)"/>
<rect id="Rectangle 2" opacity="0.3" x="-1" y="62" width="84" height="2" fill="url(#paint3_linear)"/>
<rect id="Rectangle 4" opacity="0.3" x="2" y="67" width="84" height="1" fill="url(#paint4_linear)"/>
<g id="Group 38">
<path id="Vector" d="M25.9401 102.26C44.5245 96.8739 59.4558 102.197 59.6043 102.251C59.7371 102.3 59.8864 102.281 60.003 102.199C60.1194 102.117 60.1889 101.984 60.1889 101.842V97.9403C60.1889 97.7445 60.0578 97.5726 59.869 97.5208C59.8203 97.5074 58.3367 97.1108 55.8209 96.6787V92.3635H57.58C57.8203 92.3635 58.0151 92.1687 58.0151 91.9285V89.1197C58.0151 88.8794 57.8203 88.6846 57.58 88.6846H55.8209V81.7806C56.2466 81.6189 56.5514 81.2097 56.5514 80.728V76.0247H56.5578C56.798 76.0247 56.9928 75.8299 56.9928 75.5897V67.9075C56.9928 67.6672 56.798 67.4724 56.5578 67.4724H51.1127C50.8725 67.4724 50.6777 67.6672 50.6777 67.9075V75.5897C50.6777 75.8299 50.8725 76.0247 51.1127 76.0247H51.1191V80.728C51.1191 81.2222 51.4404 81.6386 51.8834 81.7912V88.6846H33.6894V81.7912C34.1325 81.6386 34.4537 81.2222 34.4537 80.728V76.0247H34.4601C34.7004 76.0247 34.8952 75.8299 34.8952 75.5897V67.9075C34.8952 67.6672 34.7004 67.4724 34.4601 67.4724H29.0151C28.7748 67.4724 28.58 67.6672 28.58 67.9075V75.5897C28.58 75.8299 28.7748 76.0247 29.0151 76.0247H29.0214V80.728C29.0214 81.2097 29.3262 81.6189 29.752 81.7806V88.6846H27.9928C27.7526 88.6846 27.5578 88.8794 27.5578 89.1197V91.9285C27.5578 92.1687 27.7526 92.3635 27.9928 92.3635H29.752V96.7435C28.4152 96.9956 27.0665 97.2885 25.7094 97.6417C25.5178 97.6916 25.3839 97.8647 25.3839 98.0627V101.842C25.3839 101.979 25.4483 102.108 25.5577 102.19C25.6671 102.272 25.8092 102.298 25.9401 102.26ZM40.7231 92.3635L38.1127 95.7143C36.6728 95.8027 35.1953 95.9393 33.6894 96.1287V92.3635H40.7231ZM44.9661 92.3635H51.8834V96.1117C50.571 95.9574 49.1267 95.8219 47.5753 95.7247L44.9661 92.3635Z" fill="#DFA2A2"/>
<g id="Group 37">
<path id="Vector_2" d="M59.4753 33.3276C40.8607 38.7225 25.9053 33.3912 25.7566 33.3369C25.6236 33.2876 25.474 33.3071 25.3572 33.3888C25.2406 33.4705 25.171 33.6037 25.171 33.7461V37.6544C25.171 37.8506 25.3023 38.0227 25.4915 38.0746C25.5402 38.088 27.0262 38.4852 29.5461 38.9181V43.2402H27.7841C27.5435 43.2402 27.3484 43.4353 27.3484 43.676V46.4893C27.3484 46.7299 27.5435 46.9251 27.7841 46.9251H29.5461V53.8402C29.1197 54.0023 28.8144 54.4121 28.8144 54.8946V59.6055H28.808C28.5674 59.6055 28.3722 59.8006 28.3722 60.0413V67.7359C28.3722 67.9765 28.5674 68.1717 28.808 68.1717H34.2619C34.5025 68.1717 34.6977 67.9765 34.6977 67.7359V60.0413C34.6977 59.8006 34.5025 59.6055 34.2619 59.6055H34.2555V54.8946C34.2555 54.3996 33.9337 53.9825 33.4899 53.8297V46.9251H51.7134V53.8297C51.2696 53.9825 50.9478 54.3996 50.9478 54.8946V59.6055H50.9415C50.7008 59.6055 50.5057 59.8006 50.5057 60.0413V67.7359C50.5057 67.9765 50.7008 68.1717 50.9415 68.1717H56.3954C56.636 68.1717 56.8311 67.9765 56.8311 67.7359V60.0413C56.8311 59.8006 56.636 59.6055 56.3954 59.6055H56.389V54.8946C56.389 54.4121 56.0837 54.0023 55.6572 53.8402V46.9251H57.4192C57.6599 46.9251 57.855 46.7299 57.855 46.4893V43.676C57.855 43.4353 57.6599 43.2402 57.4192 43.2402H55.6572V38.8531C56.9962 38.6006 58.347 38.3073 59.7064 37.9535C59.8983 37.9035 60.0323 37.7301 60.0323 37.5318V33.7461C60.0323 33.6091 59.9679 33.4801 59.8583 33.3978C59.7487 33.3152 59.6064 33.2899 59.4753 33.3276ZM44.6684 43.2402L47.283 39.884C48.7252 39.7955 50.2051 39.6586 51.7134 39.469V43.2402H44.6684ZM40.4185 43.2402H33.4899V39.486C34.8045 39.6405 36.2511 39.7762 37.8051 39.8736L40.4185 43.2402Z" fill="#D6111D"/>
<path id="Vector 9" d="M60.743 34.7683L60.9912 33.527C61.0528 33.2191 60.7811 32.9467 60.4733 33.0089C58.1234 33.4839 49.8133 35.0532 42.6017 35.0532C35.3892 35.0532 26.9209 33.4835 24.5247 33.0088C24.2135 32.9471 23.9419 33.2265 24.0108 33.5362L24.2391 34.5638C24.2759 34.7294 24.4011 34.8575 24.5671 34.8919C26.119 35.2135 34.1845 36.7963 42.6017 36.7963C50.985 36.7963 58.8451 35.4006 60.406 35.107C60.5789 35.0745 60.7085 34.9408 60.743 34.7683Z" fill="#323136"/>
<path id="Vector_3" d="M47.2861 39.857L45.1073 43.2456H39.987L37.8082 39.8466C37.8082 39.8466 38.8976 40.0645 42.6016 40.0645C46.0878 40.0645 47.2861 39.857 47.2861 39.857Z" fill="#323136"/>
<path id="Vector_4" d="M27.7841 43.2402H29.5461H55.6572H57.4192C57.6599 43.2402 57.855 43.4354 57.855 43.676V46.4894C57.855 46.73 57.6599 46.9251 57.4192 46.9251H55.6572H29.5461H27.7841C27.5435 46.9251 27.3483 46.73 27.3483 46.4894V43.676C27.3483 43.4354 27.5435 43.2402 27.7841 43.2402Z" fill="#F14516"/>
</g>
</g>
</g>
</g>
<defs>
<linearGradient id="paint0_linear" x1="26.5" y1="5.47085e-07" x2="49.5" y2="58" gradientUnits="userSpaceOnUse">
<stop stop-color="#FFCBD7"/>
<stop offset="1" stop-color="#F9CBBD"/>
</linearGradient>
<linearGradient id="paint1_linear" x1="32.5" y1="51.5" x2="33" y2="71.5" gradientUnits="userSpaceOnUse">
<stop stop-color="#DEA9AC"/>
<stop offset="0.558846" stop-color="#CEA196" stop-opacity="0.06"/>
</linearGradient>
<linearGradient id="paint2_linear" x1="42" y1="106.238" x2="42" y2="49.1667" gradientUnits="userSpaceOnUse">
<stop stop-color="#F9BEBD"/>
<stop offset="0.997648" stop-color="#F9CBBD"/>
</linearGradient>
<linearGradient id="paint3_linear" x1="41" y1="62" x2="41" y2="63.9048" gradientUnits="userSpaceOnUse">
<stop stop-color="#EFF7FF"/>
<stop offset="0.997648" stop-color="white"/>
</linearGradient>
<linearGradient id="paint4_linear" x1="44" y1="67" x2="44" y2="67.9524" gradientUnits="userSpaceOnUse">
<stop stop-color="#EFF7FF"/>
<stop offset="0.997648" stop-color="white"/>
</linearGradient>
<clipPath id="clip0">
<path d="M0 42C0 18.804 18.804 0 42 0C65.196 0 84 18.804 84 42C84 65.196 65.196 84 42 84C18.804 84 0 65.196 0 42Z" fill="white"/>
</clipPath>
</defs>
</svg>
